<svg width="471" height="349" viewBox="0 0 471 349" fill="none" xmlns="http://www.w3.org/2000/svg">
<path d="M16.744 308.776C18.1627 308.776 19.3947 308.599 20.44 308.244C21.504 307.889 22.372 307.404 23.044 306.788C23.7347 306.153 24.248 305.407 24.584 304.548C24.92 303.689 25.088 302.747 25.088 301.72C25.088 299.667 24.4067 298.089 23.044 296.988C21.7 295.887 19.6373 295.336 16.856 295.336H12.04V308.776H16.744ZM36.12 330H29.316C28.028 330 27.0947 329.496 26.516 328.488L18.004 315.524C17.6867 315.039 17.332 314.693 16.94 314.488C16.5667 314.283 16.0067 314.18 15.26 314.18H12.04V330H4.508V289.512H16.856C19.6 289.512 21.952 289.801 23.912 290.38C25.8907 290.94 27.5053 291.733 28.756 292.76C30.0253 293.787 30.9587 295.019 31.556 296.456C32.1533 297.875 32.452 299.443 32.452 301.16C32.452 302.523 32.2467 303.811 31.836 305.024C31.444 306.237 30.8653 307.339 30.1 308.328C29.3533 309.317 28.42 310.185 27.3 310.932C26.1987 311.679 24.9387 312.267 23.52 312.696C24.0053 312.976 24.4533 313.312 24.864 313.704C25.2747 314.077 25.648 314.525 25.984 315.048L36.12 330ZM51.9724 330H44.4124V289.512H51.9724V330ZM100.909 309.756C100.909 312.724 100.415 315.449 99.4254 317.932C98.436 320.415 97.0454 322.552 95.2534 324.344C93.4614 326.136 91.3054 327.527 88.7854 328.516C86.2654 329.505 83.4654 330 80.3854 330H64.9574V289.512H80.3854C83.4654 289.512 86.2654 290.016 88.7854 291.024C91.3054 292.013 93.4614 293.404 95.2534 295.196C97.0454 296.969 98.436 299.097 99.4254 301.58C100.415 304.063 100.909 306.788 100.909 309.756ZM93.1814 309.756C93.1814 307.535 92.8827 305.547 92.2854 303.792C91.7067 302.019 90.8574 300.525 89.7374 299.312C88.636 298.08 87.292 297.137 85.7054 296.484C84.1374 295.831 82.364 295.504 80.3854 295.504H72.5174V324.008H80.3854C82.364 324.008 84.1374 323.681 85.7054 323.028C87.292 322.375 88.636 321.441 89.7374 320.228C90.8574 318.996 91.7067 317.503 92.2854 315.748C92.8827 313.975 93.1814 311.977 93.1814 309.756ZM119.039 295.504V306.732H133.207V312.528H119.039V323.98H137.015V330H111.479V289.512H137.015V295.504H119.039ZM169.002 314.712L164.074 301.244C163.831 300.647 163.579 299.937 163.318 299.116C163.057 298.295 162.795 297.408 162.534 296.456C162.291 297.408 162.039 298.304 161.778 299.144C161.517 299.965 161.265 300.684 161.022 301.3L156.122 314.712H169.002ZM182.302 330H176.478C175.825 330 175.293 329.841 174.882 329.524C174.471 329.188 174.163 328.777 173.958 328.292L170.934 320.032H154.162L151.138 328.292C150.989 328.721 150.699 329.113 150.27 329.468C149.841 329.823 149.309 330 148.674 330H142.794L158.726 289.512H166.398L182.302 330ZM205.724 323.924C207.18 323.924 208.478 323.681 209.616 323.196C210.774 322.711 211.744 322.029 212.528 321.152C213.312 320.275 213.91 319.211 214.32 317.96C214.75 316.709 214.964 315.309 214.964 313.76V289.512H222.496V313.76C222.496 316.168 222.104 318.399 221.32 320.452C220.555 322.487 219.444 324.251 217.988 325.744C216.551 327.219 214.796 328.376 212.724 329.216C210.652 330.037 208.319 330.448 205.724 330.448C203.111 330.448 200.768 330.037 198.696 329.216C196.624 328.376 194.86 327.219 193.404 325.744C191.967 324.251 190.856 322.487 190.072 320.452C189.307 318.399 188.924 316.168 188.924 313.76V289.512H196.456V313.732C196.456 315.281 196.662 316.681 197.072 317.932C197.502 319.183 198.108 320.256 198.892 321.152C199.695 322.029 200.666 322.711 201.804 323.196C202.962 323.681 204.268 323.924 205.724 323.924ZM267.596 324.12C268.996 324.12 270.172 323.952 271.124 323.616C272.076 323.28 272.832 322.832 273.392 322.272C273.971 321.712 274.381 321.059 274.624 320.312C274.885 319.565 275.016 318.772 275.016 317.932C275.016 317.055 274.876 316.271 274.596 315.58C274.316 314.871 273.877 314.273 273.28 313.788C272.683 313.284 271.908 312.901 270.956 312.64C270.023 312.379 268.893 312.248 267.568 312.248H259.98V324.12H267.596ZM259.98 295.336V307.04H265.972C268.548 307.04 270.489 306.573 271.796 305.64C273.121 304.707 273.784 303.223 273.784 301.188C273.784 299.079 273.187 297.576 271.992 296.68C270.797 295.784 268.931 295.336 266.392 295.336H259.98ZM266.392 289.512C269.043 289.512 271.311 289.764 273.196 290.268C275.081 290.772 276.621 291.491 277.816 292.424C279.029 293.357 279.916 294.487 280.476 295.812C281.036 297.137 281.316 298.631 281.316 300.292C281.316 301.244 281.176 302.159 280.896 303.036C280.616 303.895 280.177 304.707 279.58 305.472C279.001 306.219 278.255 306.9 277.34 307.516C276.444 308.132 275.371 308.655 274.12 309.084C279.683 310.335 282.464 313.34 282.464 318.1C282.464 319.817 282.137 321.404 281.484 322.86C280.831 324.316 279.879 325.576 278.628 326.64C277.377 327.685 275.837 328.507 274.008 329.104C272.179 329.701 270.088 330 267.736 330H252.448V289.512H266.392ZM316.943 323.784V330H293.227V289.512H300.759V323.784H316.943ZM333.801 330H326.241V289.512H333.801V330ZM380.918 289.512V330H377.054C376.457 330 375.953 329.907 375.542 329.72C375.15 329.515 374.767 329.179 374.394 328.712L353.254 301.72C353.366 302.952 353.422 304.091 353.422 305.136V330H346.786V289.512H350.734C351.051 289.512 351.322 289.531 351.546 289.568C351.789 289.587 351.994 289.643 352.162 289.736C352.349 289.811 352.526 289.932 352.694 290.1C352.862 290.249 353.049 290.455 353.254 290.716L374.478 317.82C374.422 317.167 374.375 316.523 374.338 315.888C374.301 315.253 374.282 314.665 374.282 314.124V289.512H380.918ZM429.807 309.756C429.807 312.724 429.312 315.449 428.323 317.932C427.333 320.415 425.943 322.552 424.151 324.344C422.359 326.136 420.203 327.527 417.683 328.516C415.163 329.505 412.363 330 409.283 330H393.855V289.512H409.283C412.363 289.512 415.163 290.016 417.683 291.024C420.203 292.013 422.359 293.404 424.151 295.196C425.943 296.969 427.333 299.097 428.323 301.58C429.312 304.063 429.807 306.788 429.807 309.756ZM422.079 309.756C422.079 307.535 421.78 305.547 421.183 303.792C420.604 302.019 419.755 300.525 418.635 299.312C417.533 298.08 416.189 297.137 414.603 296.484C413.035 295.831 411.261 295.504 409.283 295.504H401.415V324.008H409.283C411.261 324.008 413.035 323.681 414.603 323.028C416.189 322.375 417.533 321.441 418.635 320.228C419.755 318.996 420.604 317.503 421.183 315.748C421.78 313.975 422.079 311.977 422.079 309.756ZM461.936 296.876C461.712 297.268 461.469 297.557 461.208 297.744C460.965 297.912 460.657 297.996 460.284 297.996C459.892 297.996 459.463 297.856 458.996 297.576C458.548 297.277 458.007 296.951 457.372 296.596C456.737 296.241 455.991 295.924 455.132 295.644C454.292 295.345 453.293 295.196 452.136 295.196C451.091 295.196 450.176 295.327 449.392 295.588C448.608 295.831 447.945 296.176 447.404 296.624C446.881 297.072 446.489 297.613 446.228 298.248C445.967 298.864 445.836 299.545 445.836 300.292C445.836 301.244 446.097 302.037 446.62 302.672C447.161 303.307 447.871 303.848 448.748 304.296C449.625 304.744 450.624 305.145 451.744 305.5C452.864 305.855 454.012 306.237 455.188 306.648C456.364 307.04 457.512 307.507 458.632 308.048C459.752 308.571 460.751 309.243 461.628 310.064C462.505 310.867 463.205 311.856 463.728 313.032C464.269 314.208 464.54 315.636 464.54 317.316C464.54 319.145 464.223 320.863 463.588 322.468C462.972 324.055 462.057 325.445 460.844 326.64C459.649 327.816 458.184 328.749 456.448 329.44C454.712 330.112 452.724 330.448 450.484 330.448C449.196 330.448 447.927 330.317 446.676 330.056C445.425 329.813 444.221 329.459 443.064 328.992C441.925 328.525 440.852 327.965 439.844 327.312C438.836 326.659 437.94 325.931 437.156 325.128L439.368 321.516C439.555 321.255 439.797 321.04 440.096 320.872C440.395 320.685 440.712 320.592 441.048 320.592C441.515 320.592 442.019 320.788 442.56 321.18C443.101 321.553 443.745 321.973 444.492 322.44C445.239 322.907 446.107 323.336 447.096 323.728C448.104 324.101 449.308 324.288 450.708 324.288C452.855 324.288 454.516 323.784 455.692 322.776C456.868 321.749 457.456 320.284 457.456 318.38C457.456 317.316 457.185 316.448 456.644 315.776C456.121 315.104 455.421 314.544 454.544 314.096C453.667 313.629 452.668 313.237 451.548 312.92C450.428 312.603 449.289 312.257 448.132 311.884C446.975 311.511 445.836 311.063 444.716 310.54C443.596 310.017 442.597 309.336 441.72 308.496C440.843 307.656 440.133 306.611 439.592 305.36C439.069 304.091 438.808 302.532 438.808 300.684C438.808 299.209 439.097 297.772 439.676 296.372C440.273 294.972 441.132 293.731 442.252 292.648C443.372 291.565 444.753 290.697 446.396 290.044C448.039 289.391 449.924 289.064 452.052 289.064C454.441 289.064 456.644 289.437 458.66 290.184C460.676 290.931 462.393 291.976 463.812 293.32L461.936 296.876Z" fill="#2A4264"/>
<path d="M119.648 131.168L201.655 245.681L119.648 245.681L119.648 131.168Z" fill="#2A4264"/>
<path d="M119.648 131.168L201.655 245.681L119.648 245.681L119.648 131.168Z" fill="#2A4264"/>
<path d="M353.813 247.235L277.109 245.352L299.616 182.399L353.813 247.235Z" fill="#2A4264"/>
<rect width="141.855" height="58.7567" transform="matrix(-0.616393 -0.787439 0.621771 -0.783199 277.447 245.452)" fill="#2A4264"/>
<path d="M114.672 40.7203L191.376 42.6034L168.869 105.556L114.672 40.7203Z" fill="#2A4264"/>
<rect width="141.855" height="58.7567" transform="matrix(0.616393 0.787439 -0.621771 0.783199 191.039 42.5035)" fill="#2A4264"/>
<path d="M353.813 247.235L277.109 245.352L299.616 182.399L353.813 247.235Z" fill="#2A4264"/>
<rect width="141.855" height="58.7567" transform="matrix(-0.616393 -0.787439 0.621771 -0.783199 277.447 245.452)" fill="#2A4264"/>
<path d="M114.672 40.7203L191.376 42.6034L168.869 105.556L114.672 40.7203Z" fill="#2A4264"/>
<rect width="141.855" height="58.7567" transform="matrix(0.616393 0.787439 -0.621771 0.783199 191.039 42.5035)" fill="#2A4264"/>
<path d="M351.351 156.787L269.345 42.2744L351.351 42.2744L351.351 156.787Z" fill="#2A4264"/>
<path d="M351.351 156.787L269.345 42.2744L351.351 42.2744L351.351 156.787Z" fill="#2A4264"/>
<path d="M117.187 40.7204L193.891 42.6035L171.384 105.556L117.187 40.7204Z" fill="#2A4264"/>
<rect width="141.855" height="58.7567" transform="matrix(0.616393 0.787439 -0.621771 0.783199 193.553 42.5036)" fill="#2A4264"/>
<path d="M356.328 247.235L279.624 245.352L302.131 182.399L356.328 247.235Z" fill="#2A4264"/>
<rect width="141.855" height="58.7567" transform="matrix(-0.616393 -0.787439 0.621772 -0.783199 279.961 245.452)" fill="#2A4264"/>
<path d="M117.187 40.7204L193.891 42.6035L171.384 105.556L117.187 40.7204Z" fill="#2A4264"/>
<rect width="141.855" height="58.7567" transform="matrix(0.616393 0.787439 -0.621771 0.783199 193.553 42.5036)" fill="#2A4264"/>
<path d="M356.328 247.235L279.624 245.352L302.131 182.399L356.328 247.235Z" fill="#2A4264"/>
<rect width="141.855" height="58.7567" transform="matrix(-0.616393 -0.787439 0.621772 -0.783199 279.961 245.452)" fill="#2A4264"/>
</svg>
