<svg width="289" height="290" viewBox="0 0 289 290" fill="none" xmlns="http://www.w3.org/2000/svg">
<path d="M28.6485 132.599L110.655 247.528L28.6485 247.527L28.6485 132.599Z" fill="#2A4264"/>
<path d="M28.6485 132.599L110.655 247.528L28.6485 247.527L28.6485 132.599Z" fill="#2A4264"/>
<path d="M262.813 249.087L186.109 247.197L208.616 184.016L262.813 249.087Z" fill="#2A4264"/>
<rect width="142.175" height="58.8876" transform="matrix(-0.615009 -0.78852 0.62039 -0.784294 186.447 247.297)" fill="#2A4264"/>
<path d="M23.6717 41.8234L100.376 43.7134L77.869 106.894L23.6717 41.8234Z" fill="#2A4264"/>
<rect width="142.175" height="58.8876" transform="matrix(0.615009 0.78852 -0.62039 0.784293 100.039 43.6131)" fill="#2A4264"/>
<path d="M262.813 249.087L186.109 247.197L208.616 184.016L262.813 249.087Z" fill="#2A4264"/>
<rect width="142.175" height="58.8876" transform="matrix(-0.615009 -0.78852 0.62039 -0.784294 186.447 247.297)" fill="#2A4264"/>
<path d="M23.6717 41.8234L100.376 43.7134L77.869 106.894L23.6717 41.8234Z" fill="#2A4264"/>
<rect width="142.175" height="58.8876" transform="matrix(0.615009 0.78852 -0.62039 0.784293 100.039 43.6131)" fill="#2A4264"/>
<path d="M260.351 158.311L178.345 43.3831L260.351 43.3831L260.351 158.311Z" fill="#2A4264"/>
<path d="M260.351 158.311L178.345 43.3831L260.351 43.3831L260.351 158.311Z" fill="#2A4264"/>
<path d="M26.1865 41.8235L102.891 43.7135L80.3838 106.894L26.1865 41.8235Z" fill="#2A4264"/>
<rect width="142.175" height="58.8876" transform="matrix(0.615009 0.78852 -0.62039 0.784293 102.553 43.6132)" fill="#2A4264"/>
<path d="M265.328 249.087L188.624 247.197L211.131 184.016L265.328 249.087Z" fill="#2A4264"/>
<rect width="142.175" height="58.8876" transform="matrix(-0.615009 -0.78852 0.62039 -0.784293 188.961 247.297)" fill="#2A4264"/>
<path d="M26.1865 41.8235L102.891 43.7135L80.3838 106.894L26.1865 41.8235Z" fill="#2A4264"/>
<rect width="142.175" height="58.8876" transform="matrix(0.615009 0.78852 -0.62039 0.784293 102.553 43.6132)" fill="#2A4264"/>
<path d="M265.328 249.087L188.624 247.197L211.131 184.016L265.328 249.087Z" fill="#2A4264"/>
<rect width="142.175" height="58.8876" transform="matrix(-0.615009 -0.78852 0.62039 -0.784293 188.961 247.297)" fill="#2A4264"/>
</svg>
