<svg width="492" height="349" viewBox="0 0 492 349" fill="none" xmlns="http://www.w3.org/2000/svg">
<path d="M16.744 308.776C18.1627 308.776 19.3947 308.599 20.44 308.244C21.504 307.889 22.372 307.404 23.044 306.788C23.7347 306.153 24.248 305.407 24.584 304.548C24.92 303.689 25.088 302.747 25.088 301.72C25.088 299.667 24.4067 298.089 23.044 296.988C21.7 295.887 19.6373 295.336 16.856 295.336H12.04V308.776H16.744ZM36.12 330H29.316C28.028 330 27.0947 329.496 26.516 328.488L18.004 315.524C17.6867 315.039 17.332 314.693 16.94 314.488C16.5667 314.283 16.0067 314.18 15.26 314.18H12.04V330H4.508V289.512H16.856C19.6 289.512 21.952 289.801 23.912 290.38C25.8907 290.94 27.5053 291.733 28.756 292.76C30.0253 293.787 30.9587 295.019 31.556 296.456C32.1533 297.875 32.452 299.443 32.452 301.16C32.452 302.523 32.2467 303.811 31.836 305.024C31.444 306.237 30.8653 307.339 30.1 308.328C29.3533 309.317 28.42 310.185 27.3 310.932C26.1987 311.679 24.9387 312.267 23.52 312.696C24.0053 312.976 24.4533 313.312 24.864 313.704C25.2747 314.077 25.648 314.525 25.984 315.048L36.12 330ZM51.9724 330H44.4124V289.512H51.9724V330ZM100.909 309.756C100.909 312.724 100.415 315.449 99.4254 317.932C98.436 320.415 97.0454 322.552 95.2534 324.344C93.4614 326.136 91.3054 327.527 88.7854 328.516C86.2654 329.505 83.4654 330 80.3854 330H64.9574V289.512H80.3854C83.4654 289.512 86.2654 290.016 88.7854 291.024C91.3054 292.013 93.4614 293.404 95.2534 295.196C97.0454 296.969 98.436 299.097 99.4254 301.58C100.415 304.063 100.909 306.788 100.909 309.756ZM93.1814 309.756C93.1814 307.535 92.8827 305.547 92.2854 303.792C91.7067 302.019 90.8574 300.525 89.7374 299.312C88.636 298.08 87.292 297.137 85.7054 296.484C84.1374 295.831 82.364 295.504 80.3854 295.504H72.5174V324.008H80.3854C82.364 324.008 84.1374 323.681 85.7054 323.028C87.292 322.375 88.636 321.441 89.7374 320.228C90.8574 318.996 91.7067 317.503 92.2854 315.748C92.8827 313.975 93.1814 311.977 93.1814 309.756ZM119.039 295.504V306.732H133.207V312.528H119.039V323.98H137.015V330H111.479V289.512H137.015V295.504H119.039ZM169.002 314.712L164.074 301.244C163.831 300.647 163.579 299.937 163.318 299.116C163.057 298.295 162.795 297.408 162.534 296.456C162.291 297.408 162.039 298.304 161.778 299.144C161.517 299.965 161.265 300.684 161.022 301.3L156.122 314.712H169.002ZM182.302 330H176.478C175.825 330 175.293 329.841 174.882 329.524C174.471 329.188 174.163 328.777 173.958 328.292L170.934 320.032H154.162L151.138 328.292C150.989 328.721 150.699 329.113 150.27 329.468C149.841 329.823 149.309 330 148.674 330H142.794L158.726 289.512H166.398L182.302 330ZM205.724 323.924C207.18 323.924 208.478 323.681 209.616 323.196C210.774 322.711 211.744 322.029 212.528 321.152C213.312 320.275 213.91 319.211 214.32 317.96C214.75 316.709 214.964 315.309 214.964 313.76V289.512H222.496V313.76C222.496 316.168 222.104 318.399 221.32 320.452C220.555 322.487 219.444 324.251 217.988 325.744C216.551 327.219 214.796 328.376 212.724 329.216C210.652 330.037 208.319 330.448 205.724 330.448C203.111 330.448 200.768 330.037 198.696 329.216C196.624 328.376 194.86 327.219 193.404 325.744C191.967 324.251 190.856 322.487 190.072 320.452C189.307 318.399 188.924 316.168 188.924 313.76V289.512H196.456V313.732C196.456 315.281 196.662 316.681 197.072 317.932C197.502 319.183 198.108 320.256 198.892 321.152C199.695 322.029 200.666 322.711 201.804 323.196C202.962 323.681 204.268 323.924 205.724 323.924ZM274.008 296.876C273.784 297.268 273.541 297.557 273.28 297.744C273.037 297.912 272.729 297.996 272.356 297.996C271.964 297.996 271.535 297.856 271.068 297.576C270.62 297.277 270.079 296.951 269.444 296.596C268.809 296.241 268.063 295.924 267.204 295.644C266.364 295.345 265.365 295.196 264.208 295.196C263.163 295.196 262.248 295.327 261.464 295.588C260.68 295.831 260.017 296.176 259.476 296.624C258.953 297.072 258.561 297.613 258.3 298.248C258.039 298.864 257.908 299.545 257.908 300.292C257.908 301.244 258.169 302.037 258.692 302.672C259.233 303.307 259.943 303.848 260.82 304.296C261.697 304.744 262.696 305.145 263.816 305.5C264.936 305.855 266.084 306.237 267.26 306.648C268.436 307.04 269.584 307.507 270.704 308.048C271.824 308.571 272.823 309.243 273.7 310.064C274.577 310.867 275.277 311.856 275.8 313.032C276.341 314.208 276.612 315.636 276.612 317.316C276.612 319.145 276.295 320.863 275.66 322.468C275.044 324.055 274.129 325.445 272.916 326.64C271.721 327.816 270.256 328.749 268.52 329.44C266.784 330.112 264.796 330.448 262.556 330.448C261.268 330.448 259.999 330.317 258.748 330.056C257.497 329.813 256.293 329.459 255.136 328.992C253.997 328.525 252.924 327.965 251.916 327.312C250.908 326.659 250.012 325.931 249.228 325.128L251.44 321.516C251.627 321.255 251.869 321.04 252.168 320.872C252.467 320.685 252.784 320.592 253.12 320.592C253.587 320.592 254.091 320.788 254.632 321.18C255.173 321.553 255.817 321.973 256.564 322.44C257.311 322.907 258.179 323.336 259.168 323.728C260.176 324.101 261.38 324.288 262.78 324.288C264.927 324.288 266.588 323.784 267.764 322.776C268.94 321.749 269.528 320.284 269.528 318.38C269.528 317.316 269.257 316.448 268.716 315.776C268.193 315.104 267.493 314.544 266.616 314.096C265.739 313.629 264.74 313.237 263.62 312.92C262.5 312.603 261.361 312.257 260.204 311.884C259.047 311.511 257.908 311.063 256.788 310.54C255.668 310.017 254.669 309.336 253.792 308.496C252.915 307.656 252.205 306.611 251.664 305.36C251.141 304.091 250.88 302.532 250.88 300.684C250.88 299.209 251.169 297.772 251.748 296.372C252.345 294.972 253.204 293.731 254.324 292.648C255.444 291.565 256.825 290.697 258.468 290.044C260.111 289.391 261.996 289.064 264.124 289.064C266.513 289.064 268.716 289.437 270.732 290.184C272.748 290.931 274.465 291.976 275.884 293.32L274.008 296.876ZM321.234 289.512V330H313.674V312.304H294.662V330H287.102V289.512H294.662V306.928H313.674V289.512H321.234ZM355.563 314.712L350.635 301.244C350.392 300.647 350.14 299.937 349.879 299.116C349.617 298.295 349.356 297.408 349.095 296.456C348.852 297.408 348.6 298.304 348.339 299.144C348.077 299.965 347.825 300.684 347.583 301.3L342.683 314.712H355.563ZM368.863 330H363.039C362.385 330 361.853 329.841 361.443 329.524C361.032 329.188 360.724 328.777 360.519 328.292L357.495 320.032H340.723L337.699 328.292C337.549 328.721 337.26 329.113 336.831 329.468C336.401 329.823 335.869 330 335.235 330H329.355L345.287 289.512H352.959L368.863 330ZM412.926 309.756C412.926 312.724 412.431 315.449 411.442 317.932C410.452 320.415 409.062 322.552 407.27 324.344C405.478 326.136 403.322 327.527 400.802 328.516C398.282 329.505 395.482 330 392.402 330H376.974V289.512H392.402C395.482 289.512 398.282 290.016 400.802 291.024C403.322 292.013 405.478 293.404 407.27 295.196C409.062 296.969 410.452 299.097 411.442 301.58C412.431 304.063 412.926 306.788 412.926 309.756ZM405.198 309.756C405.198 307.535 404.899 305.547 404.302 303.792C403.723 302.019 402.874 300.525 401.754 299.312C400.652 298.08 399.308 297.137 397.722 296.484C396.154 295.831 394.38 295.504 392.402 295.504H384.534V324.008H392.402C394.38 324.008 396.154 323.681 397.722 323.028C399.308 322.375 400.652 321.441 401.754 320.228C402.874 318.996 403.723 317.503 404.302 315.748C404.899 313.975 405.198 311.977 405.198 309.756ZM431.055 295.504V306.732H445.223V312.528H431.055V323.98H449.031V330H423.495V289.512H449.031V295.504H431.055ZM481.186 296.876C480.962 297.268 480.719 297.557 480.458 297.744C480.215 297.912 479.907 297.996 479.534 297.996C479.142 297.996 478.713 297.856 478.246 297.576C477.798 297.277 477.257 296.951 476.622 296.596C475.987 296.241 475.241 295.924 474.382 295.644C473.542 295.345 472.543 295.196 471.386 295.196C470.341 295.196 469.426 295.327 468.642 295.588C467.858 295.831 467.195 296.176 466.654 296.624C466.131 297.072 465.739 297.613 465.478 298.248C465.217 298.864 465.086 299.545 465.086 300.292C465.086 301.244 465.347 302.037 465.87 302.672C466.411 303.307 467.121 303.848 467.998 304.296C468.875 304.744 469.874 305.145 470.994 305.5C472.114 305.855 473.262 306.237 474.438 306.648C475.614 307.04 476.762 307.507 477.882 308.048C479.002 308.571 480.001 309.243 480.878 310.064C481.755 310.867 482.455 311.856 482.978 313.032C483.519 314.208 483.79 315.636 483.79 317.316C483.79 319.145 483.473 320.863 482.838 322.468C482.222 324.055 481.307 325.445 480.094 326.64C478.899 327.816 477.434 328.749 475.698 329.44C473.962 330.112 471.974 330.448 469.734 330.448C468.446 330.448 467.177 330.317 465.926 330.056C464.675 329.813 463.471 329.459 462.314 328.992C461.175 328.525 460.102 327.965 459.094 327.312C458.086 326.659 457.19 325.931 456.406 325.128L458.618 321.516C458.805 321.255 459.047 321.04 459.346 320.872C459.645 320.685 459.962 320.592 460.298 320.592C460.765 320.592 461.269 320.788 461.81 321.18C462.351 321.553 462.995 321.973 463.742 322.44C464.489 322.907 465.357 323.336 466.346 323.728C467.354 324.101 468.558 324.288 469.958 324.288C472.105 324.288 473.766 323.784 474.942 322.776C476.118 321.749 476.706 320.284 476.706 318.38C476.706 317.316 476.435 316.448 475.894 315.776C475.371 315.104 474.671 314.544 473.794 314.096C472.917 313.629 471.918 313.237 470.798 312.92C469.678 312.603 468.539 312.257 467.382 311.884C466.225 311.511 465.086 311.063 463.966 310.54C462.846 310.017 461.847 309.336 460.97 308.496C460.093 307.656 459.383 306.611 458.842 305.36C458.319 304.091 458.058 302.532 458.058 300.684C458.058 299.209 458.347 297.772 458.926 296.372C459.523 294.972 460.382 293.731 461.502 292.648C462.622 291.565 464.003 290.697 465.646 290.044C467.289 289.391 469.174 289.064 471.302 289.064C473.691 289.064 475.894 289.437 477.91 290.184C479.926 290.931 481.643 291.976 483.062 293.32L481.186 296.876Z" fill="#2A4264"/>
<path d="M130.648 131.168L212.655 245.681L130.648 245.681L130.648 131.168Z" fill="#2A4264"/>
<path d="M130.648 131.168L212.655 245.681L130.648 245.681L130.648 131.168Z" fill="#2A4264"/>
<path d="M364.813 247.235L288.109 245.352L310.616 182.399L364.813 247.235Z" fill="#2A4264"/>
<rect width="141.855" height="58.7567" transform="matrix(-0.616393 -0.787439 0.621771 -0.783199 288.447 245.452)" fill="#2A4264"/>
<path d="M125.672 40.7204L202.376 42.6035L179.869 105.556L125.672 40.7204Z" fill="#2A4264"/>
<rect width="141.855" height="58.7567" transform="matrix(0.616393 0.787439 -0.621771 0.783199 202.039 42.5036)" fill="#2A4264"/>
<path d="M364.813 247.235L288.109 245.352L310.616 182.399L364.813 247.235Z" fill="#2A4264"/>
<rect width="141.855" height="58.7567" transform="matrix(-0.616393 -0.787439 0.621771 -0.783199 288.447 245.452)" fill="#2A4264"/>
<path d="M125.672 40.7204L202.376 42.6035L179.869 105.556L125.672 40.7204Z" fill="#2A4264"/>
<rect width="141.855" height="58.7567" transform="matrix(0.616393 0.787439 -0.621771 0.783199 202.039 42.5036)" fill="#2A4264"/>
<path d="M362.351 156.787L280.345 42.2744L362.351 42.2744L362.351 156.787Z" fill="#2A4264"/>
<path d="M362.351 156.787L280.345 42.2744L362.351 42.2744L362.351 156.787Z" fill="#2A4264"/>
<path d="M128.187 40.7204L204.891 42.6036L182.384 105.556L128.187 40.7204Z" fill="#2A4264"/>
<rect width="141.855" height="58.7567" transform="matrix(0.616393 0.787439 -0.621771 0.783199 204.553 42.5037)" fill="#2A4264"/>
<path d="M367.328 247.235L290.624 245.352L313.131 182.399L367.328 247.235Z" fill="#2A4264"/>
<rect width="141.855" height="58.7567" transform="matrix(-0.616393 -0.787439 0.621772 -0.783199 290.961 245.452)" fill="#2A4264"/>
<path d="M128.187 40.7204L204.891 42.6036L182.384 105.556L128.187 40.7204Z" fill="#2A4264"/>
<rect width="141.855" height="58.7567" transform="matrix(0.616393 0.787439 -0.621771 0.783199 204.553 42.5037)" fill="#2A4264"/>
<path d="M367.328 247.235L290.624 245.352L313.131 182.399L367.328 247.235Z" fill="#2A4264"/>
<rect width="141.855" height="58.7567" transform="matrix(-0.616393 -0.787439 0.621772 -0.783199 290.961 245.452)" fill="#2A4264"/>
</svg>
